<svg fill="none" height="48" viewBox="0 0 48 48" width="48" xmlns="http://www.w3.org/2000/svg"><g fill="#2d3437"><path d="m12.1084 8.98006c2.645-2.57758 5.4594-3.93902 8.1473-4.5625v11.15184c-2.6957 1.0153-4.6141 3.6172-4.6141 6.6684 0 3.935 3.1891 7.1247 7.1247 7.1247 3.9344 0 7.1246-3.1897 7.1246-7.1247 0-3.1226-2.0086-5.7726-4.8039-6.736v-11.5018c4.7987.23313 8.3643 2.21518 8.3643 2.21518 1.8039 1.44274.9025 3.06643.9025 3.06643 2.3448 1.62279 1.6234 5.95159 1.6234 5.95159-.1207.9021.1795 1.4428.1795 1.4428 1.2932 1.2624 3.7586 4.8105 3.7586 4.8105 1.1121 1.7132-1.4131 2.585-1.4131 2.585-.9313.3607-.5413.781-.5413.781 1.3832 1.2022.2409 2.5254.2409 2.5254.7211 1.6239-.9625 2.6455-.9625 2.6455.6012 1.3226.6611 2.2848.6611 2.2848-.1198 2.4049-3.6673 2.3444-3.6673 2.3444-1.5626-.0596-2.1644 1.0225-2.1644 1.0225-1.3823 2.825-1.2019 6.7936-1.2019 6.7936-8.1766 2.6456-14.0089-1.1422-14.0089-1.1422l.3008-.8424c2.4049-5.5912-1.9239-9.6799-1.9239-9.6799-2.6455-2.2843-4.9294-5.7718-4.9294-5.7718-4.69065-9.4988 1.8023-16.05212 1.8023-16.05212z"/><path d="m17.5698 22.1906c0 2.8426 2.3045 5.1469 5.1469 5.1469s5.1466-2.3043 5.1466-5.1469c0-2.8424-2.3042-5.1467-5.1466-5.1467s-5.1469 2.3043-5.1469 5.1467z"/></g></svg>